<svg xmlns="http://www.w3.org/2000/svg" version="1.1" xmlns:xlink="http://www.w3.org/1999/xlink" xmlns:svgjs="http://svgjs.dev/svgjs" width="2000" height="1247" viewBox="0 0 2000 1247"><g transform="matrix(1,0,0,1,-1.2121212121212466,0.504858299595071)"><svg viewBox="0 0 396 247" data-background-color="#ffffff" preserveAspectRatio="xMidYMid meet" height="1247" width="2000" xmlns="http://www.w3.org/2000/svg" xmlns:xlink="http://www.w3.org/1999/xlink"><g id="tight-bounds" transform="matrix(1,0,0,1,0.2400000000000091,-0.09999999999999432)"><svg viewBox="0 0 395.52 247.2" height="247.2" width="395.52"><g><svg></svg></g><g><svg viewBox="0 0 395.52 247.2" height="247.2" width="395.52"><g transform="matrix(1,0,0,1,75.54432000000001,105.78490192816635)"><svg viewBox="0 0 244.43135999999996 35.630196143667284" height="35.630196143667284" width="244.43135999999996"><g><svg viewBox="0 0 244.43135999999996 35.630196143667284" height="35.630196143667284" width="244.43135999999996"><g><svg viewBox="0 0 244.43136 35.63019614366729" height="35.630196143667284" width="244.43135999999996"><g><svg viewBox="0 0 244.43136 35.63019614366729" height="35.63019614366729" width="244.43136"><g id="textblocktransform"><svg viewBox="0 0 244.43136 35.63019614366729" height="35.63019614366729" width="244.43136" id="textblock"><g><svg viewBox="0 0 244.43136 35.63019614366729" height="35.63019614366729" width="244.43136"><g transform="matrix(1,0,0,1,0,0)"><svg width="244.43136" viewBox="0.05 -34 238.01999999999998 34.7" height="35.63019614366729" data-palette-color="#0074d9"><path d="M12.15 0.2L12.15 0.2Q10.6 0.2 9.8-0.48 9-1.15 9-2.85L9-2.85Q9-4.15 9.43-6.48 9.85-8.8 10.65-11.65L10.65-11.65Q10.25-13.65 9.68-15.83 9.1-18 8.35-19.95L8.35-19.95Q7.4-22.6 6.05-24.4 4.7-26.2 2.85-26.2L2.85-26.2Q2.5-26.2 2.18-26.15 1.85-26.1 1.6-26L1.6-26Q1.1-25.9 0.58-26.7 0.05-27.5 0.05-28.6L0.05-28.6Q0.05-30 1.03-31.08 2-32.15 3.7-32.15L3.7-32.15Q5.8-32.15 7.58-30.78 9.35-29.4 10.73-26.15 12.1-22.9 12.95-17.3L12.95-17.3Q13.85-19.6 15.13-22.18 16.4-24.75 18-27.03 19.6-29.3 21.45-30.73 23.3-32.15 25.35-32.15L25.35-32.15Q26.7-32.15 27.43-31.5 28.15-30.85 28.15-29.7L28.15-29.7Q28.15-28.9 27.83-28 27.5-27.1 26.95-26.45 26.4-25.8 25.8-25.8L25.8-25.8Q25.6-25.8 25.38-25.83 25.15-25.85 24.9-25.95L24.9-25.95Q24.4-26.2 23.75-26.2L23.75-26.2Q22.15-26.2 20.25-24 18.35-21.8 16.5-17.2L16.5-17.2Q14.6-12.35 14.6-7.8L14.6-7.8Q14.6-6.75 14.88-5.73 15.15-4.7 15.9-3.85L15.9-3.85Q16.4-3.1 16.4-2.45L16.4-2.45Q16.4-1.35 15.2-0.58 14 0.2 12.15 0.2ZM29.65 0.65L29.65 0.65Q27.15 0.65 25.77-0.8 24.4-2.25 24.4-5L24.4-5Q24.4-6.95 24.95-9L24.95-9Q25.2-9.85 25.35-10.7 25.5-11.55 25.5-12.4L25.5-12.4Q25.5-14.6 24.15-15.25L24.15-15.25Q22.85-15.95 22.85-16.75L22.85-16.75Q22.85-17.55 23.52-18.35 24.2-19.15 25.2-19.68 26.2-20.2 27.2-20.2L27.2-20.2Q30.05-20.2 30.05-15.55L30.05-15.55Q30.05-14.05 29.82-12.78 29.6-11.5 29.3-10.35L29.3-10.35Q29.1-9.55 28.97-8.75 28.85-7.95 28.85-7.35L28.85-7.35Q28.85-4.85 31.3-4.85L31.3-4.85Q33.6-4.85 35.6-7.3 37.6-9.75 38.9-14.15L38.9-14.15 38.85-15.1Q38.75-17.6 39.72-18.9 40.7-20.2 42.6-20.2L42.6-20.2Q44.25-20.2 44.25-19.15L44.25-19.15Q44.25-18.8 44.12-18.25 44-17.7 43.75-16.95L43.75-16.95Q43.25-15.1 42.9-13.03 42.55-10.95 42.55-9.2L42.55-9.2Q42.55-7.25 43.15-5.98 43.75-4.7 45.4-4.25L45.4-4.25Q45.85-4.2 46.12-3.98 46.4-3.75 46.4-3.05L46.4-3.05Q46.4-1.85 45.4-0.7 44.4 0.45 42.5 0.45L42.5 0.45Q38.85 0.45 38.85-4.7L38.85-4.7Q38.85-5.6 39-7.4L39-7.4 38.9-7.45Q35.75 0.65 29.65 0.65ZM52.95 0.5L52.95 0.5Q51.49 0.5 50.8-0.3 50.09-1.1 50.09-3.1L50.09-3.1Q50.09-4.05 50.24-5.55 50.39-7.05 50.59-8.8L50.59-8.8Q50.89-10.95 51.12-13.3 51.34-15.65 51.34-17.8L51.34-17.8Q51.34-20.85 51.07-24.13 50.8-27.4 49.55-29.85L49.55-29.85Q49.09-30.85 49.09-31.3L49.09-31.3Q49.09-31.95 49.67-32.55 50.24-33.15 51.09-33.58 51.95-34 52.74-34L52.74-34Q54.05-34 54.7-32.83 55.34-31.65 55.55-29.63 55.74-27.6 55.74-25L55.74-25Q55.74-21.05 55.42-18.15 55.09-15.25 54.8-13.05L54.8-13.05Q54.59-11.6 54.42-10.3 54.24-9 54.24-7.95L54.24-7.95Q54.24-6.2 54.82-5.43 55.39-4.65 56.7-3.9L56.7-3.9Q57.05-3.7 57.22-3.53 57.39-3.35 57.39-3L57.39-3Q57.39-2.6 56.99-1.75 56.59-0.9 55.62-0.2 54.64 0.5 52.95 0.5ZM64.84-24.85L64.84-24.85Q63.44-24.9 62.59-25.7 61.74-26.5 61.74-27.95L61.74-27.95Q61.79-29.5 62.79-30.48 63.79-31.45 65.34-31.4L65.34-31.4Q66.79-31.35 67.62-30.55 68.44-29.75 68.39-28.3L68.39-28.3Q68.34-26.8 67.39-25.83 66.44-24.85 64.84-24.85ZM64.89 0.5L64.89 0.5Q63.39 0.5 62.54-0.33 61.69-1.15 61.69-3.15L61.69-3.15Q61.69-4.3 61.92-5.4 62.14-6.5 62.44-7.55L62.44-7.55Q62.79-8.65 63.02-9.8 63.24-10.95 63.24-12.25L63.24-12.25Q63.24-13.15 62.99-13.98 62.74-14.8 61.89-15.2L61.89-15.2Q61.24-15.55 60.77-15.93 60.29-16.3 60.29-16.9L60.29-16.9Q60.29-17.6 60.94-18.4 61.59-19.2 62.67-19.78 63.74-20.35 64.89-20.35L64.89-20.35Q66.14-20.35 66.72-19.7 67.29-19.05 67.49-18.05 67.69-17.05 67.69-16L67.69-16Q67.69-14.4 67.44-12.88 67.19-11.35 66.94-10.05L66.94-10.05Q66.74-9.1 66.64-8.3 66.54-7.5 66.54-6.8L66.54-6.8Q66.54-5.55 67.14-4.93 67.74-4.3 68.84-3.75L68.84-3.75Q69.29-3.5 69.29-3L69.29-3Q69.29-2.6 68.89-1.75 68.49-0.9 67.52-0.2 66.54 0.5 64.89 0.5ZM77.24-24.85L77.24-24.85Q75.84-24.9 74.99-25.7 74.14-26.5 74.14-27.95L74.14-27.95Q74.19-29.5 75.19-30.48 76.19-31.45 77.74-31.4L77.74-31.4Q79.19-31.35 80.02-30.55 80.84-29.75 80.79-28.3L80.79-28.3Q80.74-26.8 79.79-25.83 78.84-24.85 77.24-24.85ZM77.29 0.5L77.29 0.5Q75.79 0.5 74.94-0.33 74.09-1.15 74.09-3.15L74.09-3.15Q74.09-4.3 74.31-5.4 74.54-6.5 74.84-7.55L74.84-7.55Q75.19-8.65 75.42-9.8 75.64-10.95 75.64-12.25L75.64-12.25Q75.64-13.15 75.39-13.98 75.14-14.8 74.29-15.2L74.29-15.2Q73.64-15.55 73.17-15.93 72.69-16.3 72.69-16.9L72.69-16.9Q72.69-17.6 73.34-18.4 73.99-19.2 75.06-19.78 76.14-20.35 77.29-20.35L77.29-20.35Q78.54-20.35 79.11-19.7 79.69-19.05 79.89-18.05 80.09-17.05 80.09-16L80.09-16Q80.09-14.4 79.84-12.88 79.59-11.35 79.34-10.05L79.34-10.05Q79.14-9.1 79.04-8.3 78.94-7.5 78.94-6.8L78.94-6.8Q78.94-5.55 79.54-4.93 80.14-4.3 81.24-3.75L81.24-3.75Q81.69-3.5 81.69-3L81.69-3Q81.69-2.6 81.29-1.75 80.89-0.9 79.92-0.2 78.94 0.5 77.29 0.5ZM91.64 0.65L91.64 0.65Q88.64 0.65 86.81-1.23 84.99-3.1 84.99-6.6L84.99-6.6Q84.99-9.1 85.96-11.58 86.94-14.05 88.79-16.05 90.64-18.05 93.24-19.25 95.84-20.45 99.09-20.45L99.09-20.45Q102.09-20.45 104.21-19.43 106.34-18.4 106.34-16.65L106.34-16.65Q106.34-16.2 106.24-15.48 106.14-14.75 105.99-14.3L105.99-14.3Q105.84-13.9 105.56-13.58 105.29-13.25 104.84-13.25L104.84-13.25Q104.64-13.25 104.09-13.4L104.09-13.4Q103.89-12.35 103.79-11.35 103.69-10.35 103.69-9.35L103.69-9.35Q103.69-7.45 104.26-5.98 104.84-4.5 106.54-4.15L106.54-4.15Q106.99-4.05 107.26-3.85 107.54-3.65 107.54-3L107.54-3Q107.54-2.45 107.26-1.6 106.99-0.75 106.21-0.08 105.44 0.6 103.99 0.6L103.99 0.6Q102.04 0.6 100.99-0.83 99.94-2.25 99.94-4.9L99.94-4.9Q98.59-2.45 96.51-0.9 94.44 0.65 91.64 0.65ZM93.24-4.55L93.24-4.55Q95.24-4.55 96.76-5.8 98.29-7.05 99.14-8.95L99.14-8.95Q99.69-10.15 99.99-11.58 100.29-13 100.39-14.4L100.39-14.4Q99.54-14.8 98.44-15.05 97.34-15.3 96.14-15.3L96.14-15.3Q93.09-15.3 91.11-13.5 89.14-11.7 89.14-9L89.14-9Q89.14-7 90.24-5.78 91.34-4.55 93.24-4.55ZM128.83 0.5L128.83 0.5Q128.23 0.5 127.61 0.3 126.98 0.1 126.58-0.65 126.18-1.4 126.18-2.95L126.18-2.95Q126.18-4.2 126.41-6.13 126.63-8.05 126.98-10.25L126.98-10.25Q127.33-12.5 127.56-15 127.78-17.5 127.78-20.05L127.78-20.05Q127.78-21.05 127.73-22.2 127.68-23.35 127.53-24.45L127.53-24.45Q127.18-24.25 126.86-24.13 126.53-24 126.23-24L126.23-24Q125.38-24 125.38-25.65L125.38-25.65Q125.38-27.15 126.06-28.18 126.73-29.2 128.53-30.15L128.53-30.15Q130.28-31.1 132.66-31.73 135.03-32.35 137.48-32.35L137.48-32.35Q142.33-32.35 145.26-29.8 148.18-27.25 148.18-23L148.18-23Q148.18-20.4 147.13-18.2 146.08-16 144.36-14.38 142.63-12.75 140.61-11.88 138.58-11 136.63-11L136.63-11Q134.78-11 134.13-11.83 133.48-12.65 133.48-14.2L133.48-14.2Q133.48-14.95 133.66-15.58 133.83-16.2 134.43-16.2L134.43-16.2Q134.58-16.2 134.88-16.15 135.18-16.1 135.48-16L135.48-16Q135.78-15.95 136.33-15.85 136.88-15.75 137.58-15.75L137.58-15.75Q140.33-15.75 142.06-17.3 143.78-18.85 143.78-21.3L143.78-21.3Q143.78-23.85 141.88-25.3 139.98-26.75 136.98-26.75L136.98-26.75Q135.88-26.75 134.73-26.58 133.58-26.4 132.43-26.1L132.43-26.1Q132.28-22.8 131.73-18.6L131.73-18.6Q131.43-16.1 131.21-13.68 130.98-11.25 130.98-9.25L130.98-9.25Q130.98-7.5 131.31-6.18 131.63-4.85 132.63-3.9L132.63-3.9Q133.33-3.2 133.33-2.4L133.33-2.4Q133.33-1.3 132.08-0.4 130.83 0.5 128.83 0.5ZM153.48 0.65L153.48 0.65Q150.48 0.65 148.66-1.23 146.83-3.1 146.83-6.6L146.83-6.6Q146.83-9.1 147.81-11.58 148.78-14.05 150.63-16.05 152.48-18.05 155.08-19.25 157.68-20.45 160.93-20.45L160.93-20.45Q163.93-20.45 166.06-19.43 168.18-18.4 168.18-16.65L168.18-16.65Q168.18-16.2 168.08-15.48 167.98-14.75 167.83-14.3L167.83-14.3Q167.68-13.9 167.41-13.58 167.13-13.25 166.68-13.25L166.68-13.25Q166.48-13.25 165.93-13.4L165.93-13.4Q165.73-12.35 165.63-11.35 165.53-10.35 165.53-9.35L165.53-9.35Q165.53-7.45 166.11-5.98 166.68-4.5 168.38-4.15L168.38-4.15Q168.83-4.05 169.11-3.85 169.38-3.65 169.38-3L169.38-3Q169.38-2.45 169.11-1.6 168.83-0.75 168.06-0.08 167.28 0.6 165.83 0.6L165.83 0.6Q163.88 0.6 162.83-0.83 161.78-2.25 161.78-4.9L161.78-4.9Q160.43-2.45 158.36-0.9 156.28 0.65 153.48 0.65ZM155.08-4.55L155.08-4.55Q157.08-4.55 158.61-5.8 160.13-7.05 160.98-8.95L160.98-8.95Q161.53-10.15 161.83-11.58 162.13-13 162.23-14.4L162.23-14.4Q161.38-14.8 160.28-15.05 159.18-15.3 157.98-15.3L157.98-15.3Q154.93-15.3 152.96-13.5 150.98-11.7 150.98-9L150.98-9Q150.98-7 152.08-5.78 153.18-4.55 155.08-4.55ZM179.53 0.7L179.53 0.7Q178.18 0.7 177.2-0.13 176.23-0.95 176.03-3.2L176.03-3.2Q175.93-4.9 175.6-6.95 175.28-9 174.78-10.85 174.28-12.7 173.63-13.75L173.63-13.75Q173.28-14.3 172.85-14.58 172.43-14.85 171.58-14.95L171.58-14.95Q171.03-15 170.83-15.3 170.63-15.6 170.63-16.25L170.63-16.25Q170.63-18.3 171.75-19.28 172.88-20.25 174.33-20.25L174.33-20.25Q175.83-20.25 176.83-19.28 177.83-18.3 178.38-16.7 178.93-15.1 179.15-13.18 179.38-11.25 179.38-9.3L179.38-9.3Q179.38-8.5 179.35-7.63 179.33-6.75 179.33-6.15L179.33-6.15Q179.33-5.6 179.55-5.3 179.78-5 180.43-5L180.43-5Q181.23-5 182.28-5.48 183.33-5.95 184.35-6.85 185.38-7.75 186.05-8.97 186.73-10.2 186.73-11.7L186.73-11.7Q186.73-12.55 186.45-13.5 186.18-14.45 185.58-15.1L185.58-15.1Q184.98-15.75 184.7-16.13 184.43-16.5 184.43-17L184.43-17Q184.43-17.9 185.25-18.65 186.08-19.4 187.2-19.85 188.33-20.3 189.18-20.3L189.18-20.3Q190.63-20.3 191.03-19.1 191.43-17.9 191.43-16.45L191.43-16.45Q191.43-13.7 190.43-10.7 189.43-7.7 187.73-5.1 186.03-2.5 183.9-0.9 181.78 0.7 179.53 0.7ZM199.03 0.5L199.03 0.5Q197.58 0.5 196.88-0.3 196.18-1.1 196.18-3.1L196.18-3.1Q196.18-4.05 196.33-5.55 196.48-7.05 196.68-8.8L196.68-8.8Q196.98-10.95 197.2-13.3 197.43-15.65 197.43-17.8L197.43-17.8Q197.43-20.85 197.15-24.13 196.88-27.4 195.63-29.85L195.63-29.85Q195.18-30.85 195.18-31.3L195.18-31.3Q195.18-31.95 195.75-32.55 196.33-33.15 197.18-33.58 198.03-34 198.83-34L198.83-34Q200.13-34 200.78-32.83 201.43-31.65 201.63-29.63 201.83-27.6 201.83-25L201.83-25Q201.83-21.05 201.5-18.15 201.18-15.25 200.88-13.05L200.88-13.05Q200.68-11.6 200.5-10.3 200.33-9 200.33-7.95L200.33-7.95Q200.33-6.2 200.9-5.43 201.48-4.65 202.78-3.9L202.78-3.9Q203.13-3.7 203.3-3.53 203.48-3.35 203.48-3L203.48-3Q203.48-2.6 203.08-1.75 202.68-0.9 201.7-0.2 200.73 0.5 199.03 0.5ZM210.92-24.85L210.92-24.85Q209.52-24.9 208.67-25.7 207.82-26.5 207.82-27.95L207.82-27.95Q207.87-29.5 208.87-30.48 209.87-31.45 211.42-31.4L211.42-31.4Q212.87-31.35 213.7-30.55 214.52-29.75 214.47-28.3L214.47-28.3Q214.42-26.8 213.47-25.83 212.52-24.85 210.92-24.85ZM210.97 0.5L210.97 0.5Q209.47 0.5 208.62-0.33 207.77-1.15 207.77-3.15L207.77-3.15Q207.77-4.3 208-5.4 208.22-6.5 208.52-7.55L208.52-7.55Q208.87-8.65 209.1-9.8 209.32-10.95 209.32-12.25L209.32-12.25Q209.32-13.15 209.07-13.98 208.82-14.8 207.97-15.2L207.97-15.2Q207.32-15.55 206.85-15.93 206.37-16.3 206.37-16.9L206.37-16.9Q206.37-17.6 207.02-18.4 207.67-19.2 208.75-19.78 209.82-20.35 210.97-20.35L210.97-20.35Q212.22-20.35 212.8-19.7 213.37-19.05 213.57-18.05 213.77-17.05 213.77-16L213.77-16Q213.77-14.4 213.52-12.88 213.27-11.35 213.02-10.05L213.02-10.05Q212.82-9.1 212.72-8.3 212.62-7.5 212.62-6.8L212.62-6.8Q212.62-5.55 213.22-4.93 213.82-4.3 214.92-3.75L214.92-3.75Q215.37-3.5 215.37-3L215.37-3Q215.37-2.6 214.97-1.75 214.57-0.9 213.6-0.2 212.62 0.5 210.97 0.5ZM226.17 0.7L226.17 0.7Q224.82 0.7 223.85-0.13 222.87-0.95 222.67-3.2L222.67-3.2Q222.57-4.9 222.25-6.95 221.92-9 221.42-10.85 220.92-12.7 220.27-13.75L220.27-13.75Q219.92-14.3 219.5-14.58 219.07-14.85 218.22-14.95L218.22-14.95Q217.67-15 217.47-15.3 217.27-15.6 217.27-16.25L217.27-16.25Q217.27-18.3 218.4-19.28 219.52-20.25 220.97-20.25L220.97-20.25Q222.47-20.25 223.47-19.28 224.47-18.3 225.02-16.7 225.57-15.1 225.8-13.18 226.02-11.25 226.02-9.3L226.02-9.3Q226.02-8.5 226-7.63 225.97-6.75 225.97-6.15L225.97-6.15Q225.97-5.6 226.2-5.3 226.42-5 227.07-5L227.07-5Q227.87-5 228.92-5.48 229.97-5.95 231-6.85 232.02-7.75 232.7-8.97 233.37-10.2 233.37-11.7L233.37-11.7Q233.37-12.55 233.1-13.5 232.82-14.45 232.22-15.1L232.22-15.1Q231.62-15.75 231.35-16.13 231.07-16.5 231.07-17L231.07-17Q231.07-17.9 231.9-18.65 232.72-19.4 233.85-19.85 234.97-20.3 235.82-20.3L235.82-20.3Q237.27-20.3 237.67-19.1 238.07-17.9 238.07-16.45L238.07-16.45Q238.07-13.7 237.07-10.7 236.07-7.7 234.37-5.1 232.67-2.5 230.55-0.9 228.42 0.7 226.17 0.7Z" opacity="1" transform="matrix(1,0,0,1,0,0)" fill="#0074d9" class="wordmark-text-0" data-fill-palette-color="primary" id="text-0"></path></svg></g></svg></g></svg></g></svg></g></svg></g></svg></g></svg></g><path d="M180.18 99.785L180.18 36.667 6.314 36.667 6.314 210.533 180.18 210.533 180.18 147.415 176.967 147.415 176.967 207.32 9.527 207.32 9.527 39.88 176.967 39.88 176.967 99.785Z" fill="#0074d9" stroke="transparent" data-fill-palette-color="tertiary"></path></svg></g><defs></defs></svg><rect width="395.52" height="247.2" fill="none" stroke="none" visibility="hidden"></rect></g></svg></g></svg>